<svg version="1.1" id="Layer_1" xmlns="http://www.w3.org/2000/svg" xmlns:xlink="http://www.w3.org/1999/xlink" x="0px" y="0px"
	 width="100%" viewBox="0 0 225 225" enable-background="new 0 0 225 225" xml:space="preserve">
<path fill="#FFFFFF" opacity="1.000000" stroke="none" 
	d="
M154.000000,226.000000 
	C102.666672,226.000000 51.833340,226.000000 1.000007,226.000000 
	C1.000005,151.000000 1.000005,76.000015 1.000002,1.000017 
	C75.999992,1.000011 150.999985,1.000011 225.999969,1.000006 
	C225.999985,75.999985 225.999985,150.999969 226.000000,225.999969 
	C202.166672,226.000000 178.333328,226.000000 154.000000,226.000000 
M74.398499,134.557922 
	C70.672089,139.678223 65.076767,143.798111 66.084740,151.350571 
	C67.770660,163.982758 70.846130,176.249908 77.044029,187.404587 
	C81.399048,195.242523 86.760063,202.521469 91.671867,210.050034 
	C92.284851,209.810623 92.897842,209.571198 93.510834,209.331787 
	C89.751556,192.274734 90.471016,175.612228 96.716194,159.290543 
	C102.920151,143.076599 113.007133,129.987213 128.752487,119.664551 
	C123.503662,118.902397 119.757393,118.358421 116.378998,117.272614 
	C136.100296,102.371986 157.876770,98.811317 181.654770,105.744537 
	C163.091721,86.415276 141.029297,75.968452 114.275635,76.222046 
	C115.251724,73.682716 116.227821,71.143379 117.538857,67.732666 
	C105.157318,71.254616 93.961098,71.512344 83.365776,65.326439 
	C72.669174,59.081387 67.082970,49.369370 64.649689,37.373501 
	C60.075161,56.787312 59.929611,75.700020 68.523529,93.989227 
	C71.038559,99.341621 74.903755,103.281548 80.424828,105.896477 
	C78.697197,115.113960 76.969559,124.331444 75.066422,133.869934 
	C75.066422,133.869934 74.933960,134.214584 74.398499,134.557922 
M121.951637,16.257488 
	C110.844971,14.029353 104.184967,17.258142 100.385384,27.127232 
	C97.051178,35.787560 96.819214,44.715824 99.603615,53.554550 
	C100.491653,56.373516 102.380859,58.877094 103.734489,61.381618 
	C112.894943,55.001736 121.408508,49.460121 129.414780,43.263123 
	C131.857422,41.372459 134.383331,37.640247 134.309784,34.818165 
	C134.100266,26.777649 130.684692,20.006447 121.951637,16.257488 
z"/>
<path fill="#A3CD3A" opacity="1.000000" stroke="none" 
	d="
M75.241928,133.548935 
	C76.969559,124.331444 78.697197,115.113960 80.676102,105.461761 
	C80.927376,105.027046 81.162323,104.852715 81.568077,104.915939 
	C84.708939,104.402046 87.654419,104.291008 90.143013,103.167725 
	C101.369888,98.100235 108.225708,88.912033 113.265724,77.816597 
	C113.701576,77.427902 113.920013,77.169777 114.138451,76.911652 
	C141.029297,75.968452 163.091721,86.415276 181.654770,105.744537 
	C157.876770,98.811317 136.100296,102.371986 115.840515,117.618774 
	C115.068565,118.026962 114.835098,118.089005 114.185043,118.074661 
	C98.628220,117.488396 86.149948,123.573509 75.241928,133.548935 
z"/>
<path fill="#50B9E9" opacity="1.000000" stroke="none" 
	d="
M114.601624,118.151039 
	C114.835098,118.089005 115.068565,118.026962 115.656570,117.889687 
	C119.757393,118.358421 123.503662,118.902397 128.752487,119.664551 
	C113.007133,129.987213 102.920151,143.076599 96.716194,159.290543 
	C90.471016,175.612228 89.751556,192.274734 93.510834,209.331787 
	C92.897842,209.571198 92.284851,209.810623 91.671867,210.050034 
	C86.760063,202.521469 81.399048,195.242523 77.044029,187.404587 
	C70.846130,176.249908 67.770660,163.982758 66.084740,151.350571 
	C65.076767,143.798111 70.672089,139.678223 74.692841,134.831329 
	C74.414627,149.339020 76.740891,163.027954 82.595848,176.896942 
	C86.121986,152.769272 96.780853,133.485840 114.601624,118.151039 
z"/>
<path fill="#50BAEA" opacity="1.000000" stroke="none" 
	d="
M114.207047,76.566849 
	C113.920013,77.169777 113.701576,77.427902 112.813309,77.775391 
	C99.294662,77.317680 90.177841,82.593559 85.446960,94.849937 
	C84.141655,98.231636 82.597099,101.520988 81.162323,104.852715 
	C81.162323,104.852715 80.927376,105.027046 80.792389,105.082092 
	C74.903755,103.281548 71.038559,99.341621 68.523529,93.989227 
	C59.929611,75.700020 60.075161,56.787312 64.649689,37.373501 
	C67.082970,49.369370 72.669174,59.081387 83.365776,65.326439 
	C93.961098,71.512344 105.157318,71.254616 117.538857,67.732666 
	C116.227821,71.143379 115.251724,73.682716 114.207047,76.566849 
z"/>
<path fill="#A4CD39" opacity="1.000000" stroke="none" 
	d="
M122.305206,16.418049 
	C130.684692,20.006447 134.100266,26.777649 134.309784,34.818165 
	C134.383331,37.640247 131.857422,41.372459 129.414780,43.263123 
	C121.408508,49.460121 112.894943,55.001736 103.734489,61.381618 
	C102.380859,58.877094 100.491653,56.373516 99.603615,53.554550 
	C96.819214,44.715824 97.051178,35.787560 100.385384,27.127232 
	C104.184967,17.258142 110.844971,14.029353 122.305206,16.418049 
z"/>
<path fill="#09619C" opacity="1.000000" stroke="none" 
	d="
M114.185043,118.074661 
	C96.780853,133.485840 86.121986,152.769272 82.595848,176.896942 
	C76.740891,163.027954 74.414627,149.339020 74.960571,134.659653 
	C74.933960,134.214584 75.066422,133.869934 75.154175,133.709442 
	C86.149948,123.573509 98.628220,117.488396 114.185043,118.074661 
z"/>
<path fill="#0A619C" opacity="1.000000" stroke="none" 
	d="
M81.568069,104.915939 
	C82.597099,101.520988 84.141655,98.231636 85.446960,94.849937 
	C90.177841,82.593559 99.294662,77.317680 112.595886,77.905960 
	C108.225708,88.912033 101.369888,98.100235 90.143013,103.167725 
	C87.654419,104.291008 84.708939,104.402046 81.568069,104.915939 
z"/>
</svg>